<svg width="200" height="200" viewBox="0 0 200 200" fill="none" xmlns="http://www.w3.org/2000/svg">
<path d="M173.44 35.25H61.72V47.83C61.6839 48.4164 61.4179 48.9648 60.9797 49.3561C60.5416 49.7475 59.9667 49.9501 59.38 49.92H57.93C57.93 51.99 57.75 54.76 57.02 54.2C56.29 53.64 55.72 51.32 55.45 49.89H55.23H42.23C41.6416 49.9228 41.0642 49.7214 40.6238 49.3298C40.1835 48.9382 39.9161 48.3882 39.88 47.8V35.25H26.56C25.435 35.25 24.3211 35.4717 23.2819 35.9025C22.2427 36.3334 21.2986 36.9648 20.5036 37.7607C19.7086 38.5566 19.0783 39.5015 18.6487 40.5412C18.2191 41.5809 17.9987 42.695 18 43.82V161C18 163.273 18.9029 165.453 20.5101 167.06C22.1173 168.667 24.2971 169.57 26.57 169.57H173.44C175.711 169.567 177.888 168.663 179.493 167.056C181.098 165.449 182 163.271 182 161V43.82C182.001 42.695 181.781 41.5809 181.351 40.5412C180.922 39.5015 180.291 38.5566 179.496 37.7607C178.701 36.9648 177.757 36.3334 176.718 35.9025C175.679 35.4717 174.565 35.25 173.44 35.25ZM166.9 76.14L168.04 75.14C168.049 75.1267 168.054 75.1111 168.054 75.095C168.054 75.079 168.049 75.0633 168.04 75.05L167.14 73.84C167.13 73.8306 167.124 73.8182 167.123 73.8048C167.121 73.7915 167.124 73.7779 167.131 73.7664C167.138 73.7549 167.148 73.746 167.161 73.7412C167.173 73.7364 167.187 73.736 167.2 73.74L168.69 74C168.7 74.0073 168.712 74.0113 168.725 74.0113C168.738 74.0113 168.75 74.0073 168.76 74L169.15 72.53C169.155 72.5193 169.162 72.5102 169.172 72.5038C169.182 72.4974 169.193 72.494 169.205 72.494C169.217 72.494 169.228 72.4974 169.238 72.5038C169.248 72.5102 169.255 72.5193 169.26 72.53L169.99 73.87C170.001 73.8798 170.015 73.8853 170.03 73.8853C170.045 73.8853 170.059 73.8798 170.07 73.87L171.45 73.25C171.462 73.2463 171.474 73.2457 171.486 73.2482C171.498 73.2507 171.509 73.2563 171.518 73.2644C171.527 73.2724 171.534 73.2827 171.538 73.2942C171.541 73.3058 171.542 73.3181 171.54 73.33L171 74.7C171 74.7 171 74.76 171 74.78L172.35 75.48C172.36 75.4862 172.369 75.495 172.375 75.5055C172.381 75.516 172.384 75.5279 172.384 75.54C172.384 75.5521 172.381 75.564 172.375 75.5745C172.369 75.585 172.36 75.5938 172.35 75.6L170.89 76.01C170.89 76.01 170.89 76.01 170.89 76.08L171.18 77.57C171.184 77.5828 171.184 77.5967 171.179 77.6092C171.174 77.6218 171.165 77.6324 171.154 77.6393C171.142 77.6462 171.129 77.6491 171.115 77.6474C171.102 77.6457 171.089 77.6396 171.08 77.63L169.85 76.74C169.839 76.7302 169.825 76.7247 169.81 76.7247C169.795 76.7247 169.781 76.7302 169.77 76.74L168.77 77.9C168.765 77.9107 168.758 77.9198 168.748 77.9262C168.738 77.9326 168.727 77.936 168.715 77.936C168.703 77.936 168.692 77.9326 168.682 77.9262C168.672 77.9198 168.665 77.9107 168.66 77.9L168.58 76.39C168.58 76.3741 168.574 76.3588 168.562 76.3476C168.551 76.3363 168.536 76.33 168.52 76.33H167.01C166.985 76.3446 166.955 76.3486 166.927 76.3411C166.899 76.3336 166.875 76.3152 166.86 76.29C166.845 76.2648 166.841 76.2348 166.849 76.2067C166.856 76.1786 166.875 76.1546 166.9 76.14ZM166.78 102.71L167.59 103.49C167.59 103.49 167.59 103.49 167.65 103.49L168.5 102.75H168.58L168.46 103.87L169.57 104.07C169.578 104.074 169.586 104.08 169.591 104.088C169.596 104.096 169.598 104.106 169.598 104.115C169.598 104.124 169.596 104.134 169.591 104.142C169.586 104.15 169.578 104.156 169.57 104.16L168.62 104.77V104.83L169.15 105.83C169.15 105.83 169.15 105.91 169.09 105.9L168.03 105.54H167.97L167.53 106.54C167.53 106.54 167.45 106.54 167.44 106.54L167.05 105.48L165.96 105.79L165.91 105.72L166.5 104.72C166.5 104.72 166.5 104.72 166.5 104.66L165.59 104V103.92L166.71 103.78L166.66 102.65L166.78 102.71ZM158.58 47.46L160.21 45.96C160.222 45.9387 160.229 45.9146 160.229 45.89C160.229 45.8654 160.222 45.8413 160.21 45.82L159.27 43.82C159.26 43.8 159.257 43.7776 159.26 43.7556C159.264 43.7337 159.273 43.7133 159.289 43.697C159.304 43.6808 159.323 43.6695 159.345 43.6647C159.367 43.6599 159.389 43.6617 159.41 43.67L161.52 44.32C161.539 44.3338 161.562 44.3413 161.585 44.3413C161.608 44.3413 161.631 44.3338 161.65 44.32L162.91 42.5C162.92 42.4812 162.936 42.4656 162.954 42.4547C162.973 42.4438 162.994 42.4381 163.015 42.4381C163.036 42.4381 163.057 42.4438 163.076 42.4547C163.094 42.4656 163.11 42.4812 163.12 42.5L163.6 44.66C163.609 44.6835 163.623 44.7042 163.643 44.72C163.662 44.7358 163.685 44.7462 163.71 44.75L165.91 44.93C165.932 44.9333 165.952 44.9424 165.968 44.9563C165.985 44.9702 165.998 44.9884 166.005 45.009C166.012 45.0295 166.014 45.0516 166.009 45.073C166.005 45.0943 165.995 45.114 165.98 45.13L164.35 46.63C164.339 46.6498 164.333 46.6722 164.333 46.695C164.333 46.7178 164.339 46.7402 164.35 46.76L165.29 48.76C165.3 48.78 165.303 48.8024 165.3 48.8244C165.296 48.8463 165.287 48.8667 165.271 48.883C165.256 48.8992 165.237 48.9105 165.215 48.9153C165.193 48.9201 165.171 48.9183 165.15 48.91L163 48.27C162.981 48.2562 162.958 48.2487 162.935 48.2487C162.912 48.2487 162.889 48.2562 162.87 48.27L161.61 50.09C161.6 50.1088 161.584 50.1244 161.566 50.1353C161.547 50.1462 161.526 50.1519 161.505 50.1519C161.484 50.1519 161.463 50.1462 161.444 50.1353C161.426 50.1244 161.41 50.1088 161.4 50.09L161 47.93C160.991 47.9065 160.977 47.8858 160.957 47.87C160.938 47.8542 160.915 47.8438 160.89 47.84L158.69 47.66C158.665 47.6648 158.639 47.6615 158.616 47.6507C158.593 47.6399 158.575 47.6222 158.562 47.6C158.55 47.5778 158.545 47.5523 158.548 47.5271C158.552 47.502 158.563 47.4785 158.58 47.46ZM141.78 68.61L142.69 68.39L142.55 67.46C142.55 67.46 142.55 67.46 142.61 67.46L143.35 68.04H143.4L144.04 67.36H144.11V68.3L145.04 68.37V68.44L144.31 69.03L144.84 69.8V69.86L143.93 69.66C143.93 69.66 143.93 69.66 143.88 69.66L143.6 70.55H143.53L143.12 69.7L142.25 70.05C142.25 70.05 142.19 70.05 142.2 69.99L142.6 69.15L141.79 68.68C141.79 68.68 141.74 68.61 141.78 68.61ZM134 94.88L135.09 93.88C135.099 93.8667 135.104 93.851 135.104 93.835C135.104 93.8189 135.099 93.8033 135.09 93.79L134.46 92.44C134.454 92.4265 134.452 92.4117 134.454 92.3972C134.456 92.3827 134.462 92.369 134.472 92.3576C134.481 92.3462 134.493 92.3377 134.507 92.3328C134.521 92.3279 134.536 92.327 134.55 92.33L135.97 92.77C135.983 92.779 135.999 92.7839 136.015 92.7839C136.031 92.7839 136.047 92.779 136.06 92.77L136.91 91.55C136.915 91.537 136.924 91.5259 136.936 91.518C136.947 91.5102 136.961 91.506 136.975 91.506C136.989 91.506 137.003 91.5102 137.014 91.518C137.026 91.5259 137.035 91.537 137.04 91.55L137.37 93C137.375 93.0154 137.384 93.0291 137.397 93.0396C137.409 93.0502 137.424 93.0572 137.44 93.06L138.92 93.19C138.937 93.1854 138.955 93.1873 138.97 93.1951C138.986 93.2029 138.998 93.2162 139.004 93.2324C139.01 93.2486 139.01 93.2665 139.004 93.2827C138.997 93.2989 138.985 93.3122 138.97 93.32L137.88 94.32C137.871 94.3333 137.866 94.3489 137.866 94.365C137.866 94.381 137.871 94.3967 137.88 94.41L138.51 95.76C138.518 95.7729 138.522 95.788 138.52 95.8032C138.519 95.8183 138.513 95.8326 138.503 95.8439C138.492 95.8552 138.479 95.8628 138.464 95.8658C138.449 95.8687 138.434 95.8666 138.42 95.86L137 95.42C136.987 95.411 136.971 95.4061 136.955 95.4061C136.939 95.4061 136.923 95.411 136.91 95.42L136 96.67C135.995 96.683 135.986 96.6941 135.974 96.702C135.963 96.7098 135.949 96.714 135.935 96.714C135.921 96.714 135.907 96.7098 135.896 96.702C135.884 96.6941 135.875 96.683 135.87 96.67L135.54 95.21C135.533 95.1955 135.524 95.1827 135.512 95.1723C135.5 95.162 135.485 95.1543 135.47 95.15L134 95C133.991 94.9925 133.985 94.9833 133.98 94.9729C133.975 94.9626 133.973 94.9514 133.973 94.94C133.973 94.9287 133.975 94.9174 133.98 94.9071C133.985 94.8967 133.991 94.8875 134 94.88ZM121.35 48.6L122.94 48.23C122.949 48.2207 122.954 48.2081 122.954 48.195C122.954 48.1819 122.949 48.1693 122.94 48.16L122.7 46.54C122.697 46.5262 122.699 46.5119 122.704 46.4989C122.71 46.486 122.719 46.475 122.731 46.4675C122.743 46.4599 122.757 46.4561 122.771 46.4565C122.785 46.457 122.799 46.4617 122.81 46.47L124.09 47.47C124.104 47.4814 124.122 47.4875 124.14 47.4875C124.158 47.4875 124.176 47.4814 124.19 47.47L125.3 46.27C125.306 46.2596 125.315 46.2511 125.326 46.2451C125.336 46.2392 125.348 46.2361 125.36 46.2361C125.372 46.2361 125.384 46.2392 125.394 46.2451C125.405 46.2511 125.414 46.2596 125.42 46.27V48C125.422 48.0168 125.431 48.0321 125.444 48.0432C125.457 48.0542 125.473 48.0602 125.49 48.06L127.12 48.19C127.13 48.1962 127.139 48.205 127.145 48.2155C127.151 48.226 127.154 48.2379 127.154 48.25C127.154 48.2621 127.151 48.274 127.145 48.2845C127.139 48.295 127.13 48.3038 127.12 48.31L125.84 49.31C125.829 49.3242 125.822 49.3418 125.822 49.36C125.822 49.3782 125.829 49.3958 125.84 49.41L126.76 50.76C126.767 50.7646 126.772 50.7704 126.776 50.7772C126.781 50.784 126.784 50.7915 126.785 50.7994C126.787 50.8073 126.786 50.8154 126.785 50.8232C126.783 50.831 126.78 50.8384 126.775 50.845C126.77 50.8516 126.765 50.8572 126.758 50.8615C126.751 50.8658 126.744 50.8687 126.736 50.8701C126.728 50.8715 126.72 50.8713 126.712 50.8696C126.704 50.8679 126.697 50.8646 126.69 50.86L125.09 50.5C125.078 50.4938 125.064 50.4906 125.05 50.4906C125.036 50.4906 125.022 50.4938 125.01 50.5L124.53 52.06C124.525 52.073 124.516 52.0841 124.504 52.092C124.493 52.0998 124.479 52.104 124.465 52.104C124.451 52.104 124.437 52.0998 124.426 52.092C124.414 52.0841 124.405 52.073 124.4 52.06L123.69 50.59C123.677 50.581 123.661 50.5761 123.645 50.5761C123.629 50.5761 123.613 50.581 123.6 50.59L122.08 51.19C122.066 51.1966 122.051 51.1987 122.036 51.1958C122.021 51.1928 122.008 51.1852 121.997 51.1739C121.987 51.1626 121.981 51.1483 121.98 51.1332C121.978 51.118 121.982 51.1029 121.99 51.09L122.69 49.62C122.696 49.6144 122.702 49.6074 122.705 49.5997C122.709 49.5919 122.71 49.5835 122.71 49.575C122.71 49.5665 122.709 49.5581 122.705 49.5503C122.702 49.5426 122.696 49.5356 122.69 49.53L121.27 48.71C121.26 48.698 121.254 48.683 121.253 48.6673C121.253 48.6517 121.258 48.6363 121.267 48.6236C121.276 48.6109 121.289 48.6017 121.304 48.5974C121.319 48.5931 121.336 48.594 121.35 48.6ZM90.13 45.2C92.44 42.62 94.92 43.61 97.02 45.81C101.1 44.1 105.21 42.76 105.83 43.97C106.45 45.18 103.11 46.89 98.83 48.14C95.5032 49.1342 92.0682 49.7218 88.6 49.89C88.5852 49.8926 88.5699 49.8904 88.5564 49.8836C88.5429 49.8768 88.532 49.8658 88.5253 49.8524C88.5185 49.8389 88.5163 49.8236 88.519 49.8087C88.5216 49.7939 88.529 49.7803 88.54 49.77C88.5498 48.1127 89.109 46.5055 90.13 45.2ZM94 64.42L93.25 64.17L92.94 64.9H92.88L92.61 64.16L91.85 64.37L92.27 63.69L91.63 63.23V63.17L92.42 63.07V62.28C92.42 62.28 92.42 62.28 92.48 62.28L93.04 62.83L93.63 62.31H93.69L93.61 63.1L94.39 63.24C94.39 63.24 94.39 63.29 94.39 63.3L93.73 63.73L94 64.42ZM48.89 71.11L49.8 70.89L49.66 69.96C49.66 69.96 49.66 69.9 49.72 69.96L50.46 70.54L51.1 69.86H51.17V70.8L52.1 70.87V70.94L51.37 71.53L51.9 72.3V72.36L50.99 72.16L50.71 73.06H50.64L50.23 72.21C50.23 72.21 50.23 72.21 50.18 72.21L49.31 72.56C49.31 72.56 49.25 72.56 49.26 72.5L49.66 71.66L48.85 71.19C48.85 71.19 48.85 71.11 48.89 71.11ZM23.94 49L24.85 48.78L24.71 47.85C24.71 47.85 24.71 47.85 24.77 47.85L25.51 48.43C25.51 48.43 25.51 48.43 25.56 48.43L26.2 47.75H26.27V48.69L27.2 48.76V48.83L26.47 49.42L27 50.19V50.25L26.09 50.05C26.09 50.05 26.09 50.05 26.04 50.05L25.8 51H25.73L25.32 50.15H25.27L24.4 50.5C24.4 50.5 24.34 50.5 24.4 50.44L24.8 49.6L23.99 49.13C23.99 49.13 23.9 49 23.94 49ZM26.77 96.63L26.08 97.26C26.0756 97.2694 26.0733 97.2796 26.0733 97.29C26.0733 97.3004 26.0756 97.3106 26.08 97.32L26.48 98.16C26.4844 98.1688 26.4861 98.1787 26.4849 98.1885C26.4837 98.1983 26.4797 98.2075 26.4733 98.2149C26.4669 98.2224 26.4584 98.2278 26.4489 98.2305C26.4394 98.2332 26.4294 98.233 26.42 98.23L25.53 97.95C25.53 97.95 25.53 97.95 25.47 97.95L24.94 98.71H24.86L24.65 97.8L23.72 97.72V97.64L24.4 97.01V96.95L24.01 96.11C23.9954 96.1113 23.9809 96.1068 23.9697 96.0974C23.9584 96.0881 23.9513 96.0746 23.95 96.06C23.9487 96.0454 23.9532 96.0309 23.9626 96.0196C23.972 96.0084 23.9854 96.0013 24 96L24.89 96.28C24.89 96.28 24.89 96.28 24.94 96.28L25.47 95.51C25.4741 95.5015 25.4805 95.4944 25.4885 95.4894C25.4964 95.4844 25.5056 95.4818 25.515 95.4818C25.5244 95.4818 25.5336 95.4844 25.5416 95.4894C25.5495 95.4944 25.5559 95.5015 25.56 95.51L25.76 96.42L26.69 96.49C26.7072 96.4794 26.728 96.4761 26.7477 96.4808C26.7674 96.4854 26.7844 96.4978 26.795 96.515C26.8056 96.5322 26.8089 96.553 26.8043 96.5727C26.7996 96.5924 26.7872 96.6094 26.77 96.62V96.63ZM34.77 157.4L33.14 158.9C33.1275 158.919 33.1209 158.942 33.1209 158.965C33.1209 158.988 33.1275 159.011 33.14 159.03L34.08 161.03C34.0879 161.05 34.0901 161.073 34.0863 161.094C34.0825 161.116 34.0728 161.136 34.0584 161.152C34.044 161.169 34.0253 161.181 34.0045 161.188C33.9836 161.194 33.9613 161.195 33.94 161.19L31.83 160.54C31.8111 160.526 31.7884 160.519 31.765 160.519C31.7416 160.519 31.7189 160.526 31.7 160.54L30.44 162.36C30.4296 162.379 30.4144 162.394 30.396 162.405C30.3775 162.416 30.3564 162.422 30.335 162.422C30.3136 162.422 30.2925 162.416 30.2741 162.405C30.2556 162.394 30.2404 162.379 30.23 162.36L29.75 160.2C29.7424 160.176 29.7279 160.155 29.7084 160.139C29.6889 160.123 29.6651 160.113 29.64 160.11L27.44 159.92C27.4184 159.919 27.3977 159.912 27.3803 159.899C27.3629 159.886 27.3496 159.868 27.3421 159.848C27.3347 159.828 27.3333 159.806 27.3383 159.785C27.3433 159.764 27.3543 159.745 27.37 159.73L28.99 158.23C29.0047 158.21 29.0125 158.185 29.0125 158.16C29.0125 158.135 29.0047 158.11 28.99 158.09L28.05 156.09C28.0421 156.07 28.0399 156.047 28.0437 156.026C28.0475 156.004 28.0572 155.984 28.0716 155.968C28.086 155.951 28.1047 155.939 28.1256 155.932C28.1464 155.926 28.1687 155.925 28.19 155.93L30.3 156.59C30.3241 156.598 30.3502 156.597 30.3739 156.588C30.3976 156.579 30.4174 156.562 30.43 156.54L31.69 154.73C31.6988 154.711 31.7129 154.695 31.7306 154.683C31.7483 154.672 31.7689 154.666 31.79 154.666C31.8111 154.666 31.8317 154.672 31.8494 154.683C31.8671 154.695 31.8812 154.711 31.89 154.73L32.38 156.89C32.3881 156.913 32.4029 156.933 32.4226 156.947C32.4422 156.961 32.4657 156.969 32.49 156.97L34.69 157.16C34.7205 157.147 34.755 157.146 34.786 157.158C34.8169 157.171 34.8417 157.195 34.855 157.225C34.8683 157.256 34.8689 157.29 34.8567 157.321C34.8445 157.352 34.8205 157.377 34.79 157.39L34.77 157.4ZM40.11 121.29L38.82 122.48C38.8078 122.496 38.8012 122.515 38.8012 122.535C38.8012 122.555 38.8078 122.574 38.82 122.59L39.57 124.18C39.5796 124.196 39.584 124.215 39.5824 124.234C39.5809 124.252 39.5736 124.27 39.5615 124.284C39.5493 124.299 39.533 124.309 39.5148 124.313C39.4967 124.318 39.4775 124.317 39.46 124.31L37.78 123.79C37.7633 123.78 37.7443 123.775 37.725 123.775C37.7057 123.775 37.6867 123.78 37.67 123.79L36.67 125.24C36.661 125.254 36.6485 125.266 36.6336 125.275C36.6188 125.283 36.602 125.287 36.585 125.287C36.568 125.287 36.5512 125.283 36.5364 125.275C36.5215 125.266 36.509 125.254 36.5 125.24L36.11 123.52C36.1076 123.501 36.0981 123.483 36.0833 123.47C36.0686 123.457 36.0496 123.45 36.03 123.45L34.28 123.3C34.2631 123.297 34.2474 123.289 34.2343 123.278C34.2211 123.267 34.2111 123.253 34.205 123.237C34.199 123.221 34.1972 123.203 34.1998 123.186C34.2025 123.17 34.2094 123.154 34.22 123.14L35.52 121.95C35.5297 121.933 35.5347 121.914 35.5347 121.895C35.5347 121.876 35.5297 121.857 35.52 121.84L34.77 120.25C34.7604 120.234 34.756 120.215 34.7576 120.196C34.7591 120.178 34.7664 120.16 34.7786 120.146C34.7907 120.131 34.807 120.121 34.8252 120.117C34.8434 120.112 34.8625 120.113 34.88 120.12L36.56 120.64C36.5748 120.65 36.5922 120.655 36.61 120.655C36.6278 120.655 36.6452 120.65 36.66 120.64L37.66 119.19C37.6676 119.175 37.679 119.163 37.6932 119.154C37.7073 119.146 37.7235 119.141 37.74 119.141C37.7565 119.141 37.7727 119.146 37.7869 119.154C37.801 119.163 37.8124 119.175 37.82 119.19L38.21 120.91C38.2125 120.929 38.222 120.947 38.2367 120.96C38.2514 120.973 38.2704 120.98 38.29 120.98L40.05 121.13C40.0685 121.127 40.0874 121.13 40.1041 121.138C40.1208 121.147 40.1345 121.16 40.1433 121.177C40.1521 121.193 40.1556 121.212 40.1532 121.23C40.1508 121.249 40.1427 121.266 40.13 121.28L40.11 121.29ZM69 158.91L67.29 159.3C67.2706 159.302 67.2527 159.312 67.2398 159.327C67.2269 159.341 67.2199 159.36 67.22 159.38L67.07 161.14C67.0687 161.158 67.0621 161.175 67.0508 161.19C67.0396 161.204 67.0244 161.214 67.0071 161.22C66.9898 161.225 66.9713 161.225 66.954 161.22C66.9367 161.215 66.9213 161.204 66.91 161.19L65.71 159.9C65.6958 159.889 65.6782 159.882 65.66 159.882C65.6418 159.882 65.6242 159.889 65.61 159.9L64.01 160.65C63.9942 160.656 63.9769 160.658 63.9601 160.655C63.9433 160.652 63.9277 160.645 63.9151 160.633C63.9026 160.621 63.8935 160.607 63.8891 160.59C63.8846 160.574 63.8849 160.556 63.89 160.54L64.41 158.85C64.4188 158.835 64.4234 158.818 64.4234 158.8C64.4234 158.782 64.4188 158.765 64.41 158.75L62.96 157.75C62.9424 157.744 62.9271 157.732 62.9162 157.717C62.9054 157.702 62.8996 157.684 62.8996 157.665C62.8996 157.646 62.9054 157.628 62.9162 157.613C62.9271 157.598 62.9424 157.586 62.96 157.58L64.68 157.19C64.6994 157.188 64.7173 157.178 64.7302 157.163C64.7431 157.149 64.7502 157.13 64.75 157.11L64.9 155.36C64.8993 155.341 64.9045 155.322 64.915 155.307C64.9254 155.291 64.9406 155.279 64.9583 155.272C64.9761 155.266 64.9954 155.265 65.0137 155.27C65.0319 155.275 65.0481 155.285 65.06 155.3L66.25 156.6C66.2674 156.607 66.2861 156.611 66.305 156.611C66.3239 156.611 66.3426 156.607 66.36 156.6L67.95 155.85C67.9661 155.84 67.9848 155.836 68.0035 155.838C68.0222 155.839 68.04 155.846 68.0543 155.859C68.0686 155.871 68.0788 155.887 68.0834 155.905C68.088 155.923 68.0868 155.943 68.08 155.96L67.56 157.64C67.5486 157.654 67.5425 157.672 67.5425 157.69C67.5425 157.708 67.5486 157.726 67.56 157.74L69.01 158.74C69.0274 158.747 69.0421 158.759 69.0521 158.775C69.0621 158.791 69.0669 158.81 69.0658 158.829C69.0646 158.847 69.0577 158.865 69.0459 158.88C69.0341 158.894 69.0181 158.905 69 158.91ZM96.21 146.22L95.21 146.83C95.21 146.83 95.21 146.83 95.21 146.89L95.75 147.89C95.75 147.89 95.75 147.97 95.69 147.95L94.62 147.59L94.17 148.59C94.17 148.59 94.1 148.59 94.09 148.59L93.7 147.54H93.64L92.56 147.84C92.56 147.84 92.48 147.84 92.56 147.77L93.14 146.77V146.7L92.23 146.04V145.96L93.35 145.82L93.3 144.69H93.38L94.18 145.47C94.1902 145.477 94.2024 145.481 94.215 145.481C94.2276 145.481 94.2398 145.477 94.25 145.47L95.1 144.72C95.1 144.72 95.18 144.72 95.17 144.72L95.06 145.84C95.0556 145.849 95.0533 145.86 95.0533 145.87C95.0533 145.88 95.0556 145.891 95.06 145.9L96.17 146.1C96.17 146.1 96.28 146.2 96.25 146.22H96.21ZM124 162.57L123 163.18V163.24L123.53 164.24C123.534 164.249 123.536 164.259 123.535 164.268C123.534 164.278 123.53 164.287 123.523 164.295C123.517 164.302 123.508 164.308 123.499 164.311C123.489 164.313 123.479 164.313 123.47 164.31L122.41 163.95H122.35L121.91 164.95C121.91 164.95 121.83 164.95 121.82 164.95L121.43 163.89L120.34 164.19V164.12L120.93 163.12V163.06L120.02 162.4C120.012 162.396 120.004 162.39 119.999 162.382C119.994 162.374 119.992 162.364 119.992 162.355C119.992 162.346 119.994 162.336 119.999 162.328C120.004 162.32 120.012 162.314 120.02 162.31L121.14 162.17V161.05H121.22L122.03 161.84C122.03 161.84 122.03 161.84 122.09 161.84L122.94 161.1H123.02L122.9 162.22V162.27L124.01 162.47C124.023 162.471 124.035 162.478 124.044 162.488C124.052 162.498 124.056 162.512 124.055 162.525C124.054 162.538 124.047 162.55 124.037 162.559C124.027 162.567 124.013 162.571 124 162.57ZM157.91 140.18L157.83 140.12C157.25 139.71 154.97 138.19 151.52 135.88H151.41L120.53 123C119.73 122.575 118.848 122.327 117.944 122.273C117.04 122.22 116.134 122.362 115.29 122.69V122.75C116.466 123.54 117.558 124.448 118.55 125.46L142.17 150.63L135.86 157L108.81 137.34C106.351 135.815 103.462 135.131 100.58 135.39C90.4 136.39 76.58 137.78 69.99 135.83C66.831 134.787 64.0831 132.77 62.14 130.07C60.0627 127.271 58.4985 124.126 57.52 120.78V120.72L57.27 120.8C54.74 101.59 57.76 90.8 57.76 90.8C57.76 90.8 46.3 104 41.88 102.46C36.23 100.54 30 77 30 77H30.14V76.84C29.88 75.99 27.71 73.84 25.84 72.69C24.84 72.11 23.78 71.69 23.17 71.28C23.0689 71.209 22.9864 71.1146 22.9294 71.005C22.8725 70.8953 22.8427 70.7736 22.8427 70.65C22.8427 70.5264 22.8725 70.4047 22.9294 70.295C22.9864 70.1854 23.0689 70.091 23.17 70.02L23.05 69.85C22.9245 69.7356 22.8301 69.5911 22.7759 69.4301C22.7216 69.2692 22.7093 69.0971 22.74 68.93C22.93 68.35 23.87 68.21 25.04 68.4V68.17C25.31 67.23 26.45 67.46 26.96 67.55C29.71 68.05 33.31 70.95 33.51 71.63L33.67 71.81C33.9849 71.5779 34.3195 71.3737 34.67 71.2C34.78 70.96 33.5 68.2 34.8 67.91C35.29 67.81 35.74 68.35 35.92 68.73C36.29 69.47 37.13 72.23 36.25 76.8H36.5C40.95 87.8 43.6 92.14 43.91 92.13C44.22 92.12 53.13 82 56.67 77.87C58.67 75.58 66.12 75.78 66.12 75.78C66.2727 74.9858 66.7101 74.2746 67.35 73.78L67.26 73.62C67.26 67.7 66.94 62.32 67.44 56.41V56.33C67.0313 56.4866 66.5854 56.5189 66.1584 56.4228C65.7314 56.3267 65.3423 56.1066 65.04 55.79C64.04 54.52 65.62 50.05 67.96 52.08C68.28 49.81 68.37 47.62 70.19 46.08C76.29 41.08 81.19 50.53 82.19 54.24C83.07 57.7 78.19 65.5 76.78 66.05C76.6164 66.1196 76.4453 66.17 76.27 66.2C76.78 68.45 76.92 71.2 77.88 73.2V73.3C78.311 73.4615 78.6939 73.7297 78.993 74.0795C79.292 74.4292 79.4974 74.8492 79.59 75.3C79.59 75.3 85.68 75.52 87.5 76.35C90.61 77.78 99.21 90.83 99.5 90.84C99.79 90.85 103.09 86.29 107.5 75.3H107.78C106.97 70.65 107.91 67.73 108.29 66.99C108.48 66.61 108.94 66.08 109.43 66.19C110.72 66.48 109.37 69.24 109.43 69.48C109.43 69.56 109.9 69.68 110.31 70.01L110.59 69.94C110.8 69.26 114.47 66.45 117.24 66.01C117.75 65.93 118.89 65.73 119.14 66.67V66.9C120.32 66.74 121.25 66.9 121.43 67.48C121.457 67.6472 121.44 67.8184 121.382 67.9776C121.325 68.1368 121.228 68.2787 121.1 68.39L120.82 68.49C120.949 68.5394 121.062 68.6237 121.147 68.7335C121.231 68.8433 121.284 68.9743 121.298 69.112C121.313 69.2498 121.289 69.3888 121.229 69.5138C121.169 69.6387 121.076 69.7447 120.96 69.82C120.34 70.25 119.24 70.61 118.26 71.17C116.36 72.27 114.11 74.62 113.84 75.46V75.54H113.98C113.98 75.54 107.98 97.9 102.49 100.21C97 102.52 86.07 89.4 86.07 89.4C85.59 103.07 89.36 107.4 91.07 111.03C111.97 103.53 120.63 104.32 128.45 108.95C135.89 113.36 156.54 128.48 156.54 128.48L151.45 135.81L151.52 135.86L156.79 128.37C157.39 127.8 162.61 125.04 165.49 121.73C166.87 120.14 168.95 119.16 170.89 121.07L172.41 122.07L159.41 141.14L157.91 140.18ZM174.16 146.05L173.43 146.64V146.69L173.95 147.46V147.52L173.04 147.32H172.99L172.72 148.22H172.64L172.23 147.38C172.23 147.38 172.23 147.38 172.18 147.38L171.31 147.73C171.31 147.73 171.25 147.73 171.31 147.67L171.72 146.83C171.72 146.83 171.72 146.83 171.72 146.78L170.91 146.31V146.24L171.82 146.02L171.68 145.09H171.75L172.48 145.67L173.12 144.99H173.19V145.93L174.12 146L174.18 146.05H174.16Z" fill="white"/>
<path d="M170.85 121.05L157.85 140.12C157.27 139.71 154.99 138.19 151.54 135.88H151.43V135.83L151.5 135.88L156.77 128.39C157.37 127.82 162.59 125.06 165.47 121.75C166.83 120.12 168.91 119.14 170.85 121.05Z" fill="white"/>
<path d="M36.35 76.82H36.6C41.05 87.82 43.7 92.16 44.01 92.15C44.32 92.14 53.13 82 56.67 77.87C58.67 75.58 66.12 75.78 66.12 75.78C66.2727 74.9858 66.7101 74.2746 67.35 73.78C68.1 73.31 74.22 72.48 77.6 73.26C77.6723 73.2707 77.7429 73.2908 77.81 73.32C78.2409 73.4815 78.6239 73.7497 78.9229 74.0995C79.222 74.4492 79.4274 74.8692 79.52 75.32C79.52 75.32 85.61 75.54 87.43 76.37C90.54 77.8 99.14 90.85 99.43 90.86C99.72 90.87 103.02 86.31 107.43 75.32H107.71L113.85 75.52H113.99C113.99 75.52 107.99 97.88 102.5 100.19C97.01 102.5 86.07 89.4 86.07 89.4C85.59 103.07 89.36 107.4 91.07 111.03L57.58 120.73L57.33 120.81C54.8 101.6 57.82 90.81 57.82 90.81C57.82 90.81 46.3 104 41.88 102.46C36.23 100.54 30 77 30 77H30.14L36.35 76.82Z" fill="white"/>
<path d="M115.29 122.65C116.134 122.322 117.04 122.18 117.944 122.233C118.848 122.287 119.73 122.535 120.53 122.96L151.38 135.84V135.79L156.47 128.46C156.47 128.46 135.82 113.34 128.38 108.93C120.56 104.3 111.75 103.4 90.8501 110.93" stroke="white" stroke-width="0.86" stroke-linecap="round" stroke-linejoin="round"/>
<path d="M57.52 120.79C58.4985 124.135 60.0627 127.281 62.14 130.08C64.0857 132.782 66.8373 134.799 70 135.84C76.55 137.79 90.41 136.42 100.59 135.4C103.472 135.141 106.361 135.825 108.82 137.35L135.86 157L142.13 150.58L118.51 125.41C117.518 124.398 116.426 123.49 115.25 122.7C110.46 119.36 100.37 114.45 84.82 117.12" stroke="white" stroke-width="0.86" stroke-linecap="round" stroke-linejoin="round"/>
<path d="M79.0301 55.71C79.2621 55.71 79.4501 55.522 79.4501 55.29C79.4501 55.058 79.2621 54.87 79.0301 54.87C78.7981 54.87 78.6101 55.058 78.6101 55.29C78.6101 55.522 78.7981 55.71 79.0301 55.71Z" fill="white"/>
<path d="M73.42 55.62C73.652 55.62 73.84 55.432 73.84 55.2C73.84 54.9681 73.652 54.78 73.42 54.78C73.188 54.78 73 54.9681 73 55.2C73 55.432 73.188 55.62 73.42 55.62Z" fill="white"/>
<path d="M46.1001 40.9399H47.7801" stroke="white" stroke-width="0.86" stroke-linecap="round" stroke-linejoin="round"/>
<path d="M46.1001 40.94V35.26L42.3201 40.94H46.1001Z" stroke="white" stroke-width="0.86" stroke-linecap="round" stroke-linejoin="round"/>
<path d="M46.1001 44.2899V40.9399" stroke="white" stroke-width="0.86" stroke-linecap="round" stroke-linejoin="round"/>
<path d="M57.9099 40.9399H59.5899" stroke="white" stroke-width="0.86" stroke-linecap="round" stroke-linejoin="round"/>
<path d="M57.9099 40.94V35.27L54.1299 40.94H57.9099Z" stroke="white" stroke-width="0.86" stroke-linecap="round" stroke-linejoin="round"/>
<path d="M57.9099 44.2899V40.9399" stroke="white" stroke-width="0.86" stroke-linecap="round" stroke-linejoin="round"/>
<path d="M50.93 44.3C52.123 44.3 53.09 42.2673 53.09 39.76C53.09 37.2526 52.123 35.22 50.93 35.22C49.7371 35.22 48.77 37.2526 48.77 39.76C48.77 42.2673 49.7371 44.3 50.93 44.3Z" stroke="white" stroke-width="0.86" stroke-linecap="round" stroke-linejoin="round"/>
<path d="M68 52C68.32 49.73 68.41 47.54 70.23 46C76.33 41 81.23 50.45 82.23 54.16C83.11 57.62 78.23 65.42 76.82 65.97C76.6564 66.0396 76.4852 66.0899 76.31 66.12C74.25 66.5 71.63 64.67 70.74 62.85" stroke="white" stroke-width="0.86" stroke-miterlimit="10" stroke-linecap="round"/>
<path d="M67.26 73.62C67.26 67.7 66.94 62.32 67.44 56.41" stroke="white" stroke-width="0.86" stroke-miterlimit="10"/>
<path d="M76.1799 66L76.2399 66.24C76.7499 68.49 76.8899 71.24 77.8499 73.24" stroke="white" stroke-width="0.86" stroke-miterlimit="10"/>
<path d="M68.7901 53.08C68.5514 52.7082 68.262 52.3717 67.9301 52.08C65.5901 50.08 64.0401 54.52 65.0101 55.79C65.3123 56.1066 65.7014 56.3268 66.1284 56.4229C66.5555 56.5189 67.0014 56.4866 67.4101 56.33C67.5993 56.2724 67.7833 56.1988 67.9601 56.11" stroke="white" stroke-width="0.86" stroke-miterlimit="10" stroke-linecap="round"/>
<path d="M88.52 49.75C88.5399 48.0972 89.106 46.4975 90.13 45.2C92.44 42.62 94.92 43.61 97.02 45.81C97.6498 46.4912 98.2218 47.2238 98.73 48" stroke="white" stroke-width="0.86" stroke-miterlimit="10" stroke-linecap="round"/>
<path d="M96.9999 45.81C93.2699 47.37 89.5599 49.24 88.5399 49.76C88.5289 49.7703 88.5216 49.7839 88.5189 49.7988C88.5163 49.8136 88.5185 49.8289 88.5252 49.8424C88.532 49.8559 88.5429 49.8668 88.5563 49.8736C88.5698 49.8804 88.5851 49.8826 88.5999 49.88C92.0546 49.7087 95.476 49.1211 98.7899 48.13C103.11 46.88 106.46 45.2 105.79 43.96C105.12 42.72 101.1 44.1 96.9999 45.81Z" stroke="white" stroke-width="0.86" stroke-miterlimit="10"/>
<path d="M74.46 53C74.2935 52.8408 74.0951 52.7187 73.8779 52.6418C73.6607 52.5649 73.4297 52.5349 73.2001 52.5538C72.9705 52.5727 72.7475 52.6401 72.5458 52.7515C72.3441 52.8629 72.1683 53.0157 72.03 53.2" stroke="white" stroke-width="0.86" stroke-miterlimit="10" stroke-linecap="round"/>
<path d="M79.7901 53.08C79.6233 52.92 79.4247 52.7971 79.2071 52.7193C78.9895 52.6415 78.7579 52.6105 78.5275 52.6285C78.2972 52.6464 78.0732 52.7128 77.8703 52.8234C77.6674 52.9339 77.4901 53.0861 77.3501 53.27" stroke="white" stroke-width="0.86" stroke-miterlimit="10" stroke-linecap="round"/>
<path d="M74.1899 62.6C74.6599 61.72 76.3199 61.44 76.8299 62.33" stroke="white" stroke-width="0.86" stroke-linecap="round" stroke-linejoin="round"/>
<path d="M67.4899 53.88C67.0615 54.2691 66.5084 54.4925 65.9299 54.51" stroke="white" stroke-width="0.86" stroke-miterlimit="10" stroke-linecap="round"/>
<path d="M77.3199 53.3199C76.8299 54.5399 77.4099 56.4599 77.5899 57.7199C77.7199 58.5899 77.8999 60.2599 76.4199 59.7199" stroke="white" stroke-width="0.86" stroke-miterlimit="10" stroke-linecap="round"/>
<path d="M69.0699 122C69.1999 126.46 66.0099 129.08 62.1399 130C61.2378 130.219 60.3171 130.353 59.3899 130.4" stroke="white" stroke-width="0.86" stroke-miterlimit="10" stroke-linecap="round"/>
<path d="M157.93 140.18L159.37 141.16L172.38 122.09L170.85 121.05L170.8 121.02L157.81 140.09H157.8L157.83 140.11L157.85 140.12L157.93 140.18Z" fill="white" stroke="#372C25" stroke-width="0.86" stroke-miterlimit="10"/>
<path d="M58.0701 49.92H59.3801C59.9668 49.95 60.5417 49.7474 60.9798 49.3561C61.418 48.9647 61.684 48.4163 61.7201 47.83V32.5C61.6866 31.9126 61.4213 31.3627 60.9825 30.9708C60.5438 30.5789 59.9675 30.3772 59.3801 30.41H42.2001C41.6117 30.3771 41.0343 30.5785 40.5939 30.9702C40.1536 31.3618 39.8862 31.9118 39.8501 32.5V47.83C39.8862 48.4181 40.1536 48.9681 40.5939 49.3597C41.0343 49.7514 41.6117 49.9528 42.2001 49.92H55.2001" stroke="white" stroke-width="0.86" stroke-linecap="round" stroke-linejoin="round"/>
<path d="M55.25 48.68C55.25 48.68 55.32 49.1801 55.45 49.8801C55.72 51.3101 56.26 53.59 57.02 54.19C57.78 54.79 57.91 51.98 57.93 49.91C57.93 48.75 57.93 47.8 57.93 47.8" stroke="white" stroke-width="0.86" stroke-linecap="round" stroke-linejoin="round"/>
<path d="M30.1801 76.86C29.9201 76.01 27.7501 73.86 25.8801 72.71C24.8801 72.13 23.8201 71.71 23.2101 71.3C23.109 71.229 23.0265 71.1346 22.9695 71.025C22.9125 70.9153 22.8828 70.7936 22.8828 70.67C22.8828 70.5464 22.9125 70.4247 22.9695 70.315C23.0265 70.2054 23.109 70.1111 23.2101 70.04C23.5208 69.8906 23.8703 69.8417 24.2101 69.9C26.0607 70.3651 27.7744 71.2631 29.2101 72.52" stroke="white" stroke-width="0.86" stroke-linecap="round" stroke-linejoin="round"/>
<path d="M33.5999 71.65C33.3999 70.97 29.7999 68.07 27.0499 67.57C26.5399 67.48 25.3999 67.25 25.1299 68.19" stroke="white" stroke-width="0.86" stroke-linecap="round" stroke-linejoin="round"/>
<path d="M30.1999 71.08C28.834 69.6574 27.0387 68.7229 25.0899 68.42C23.9199 68.23 22.9799 68.42 22.7899 68.95C22.7592 69.1171 22.7716 69.2892 22.8258 69.4502C22.88 69.6111 22.9744 69.7556 23.0999 69.87" stroke="white" stroke-width="0.86" stroke-linecap="round" stroke-linejoin="round"/>
<path d="M33.18 73.56C33.1168 73.2461 33.1372 72.9211 33.239 72.6175C33.3407 72.314 33.5204 72.0424 33.7599 71.83C34.0748 71.5978 34.4094 71.3937 34.7599 71.22C34.8699 70.98 33.59 68.22 34.89 67.93C35.38 67.83 35.7899 68.39 36.0099 68.75C36.4099 69.41 37.29 74.87 35.95 78.2" stroke="white" stroke-width="0.86" stroke-linecap="round" stroke-linejoin="round"/>
<path d="M113.92 75.48C114.19 74.64 116.44 72.29 118.34 71.19C119.34 70.63 120.42 70.27 121.04 69.84C121.156 69.7647 121.249 69.6587 121.309 69.5338C121.369 69.4088 121.392 69.2698 121.378 69.1321C121.364 68.9943 121.311 68.8633 121.227 68.7535C121.142 68.6438 121.029 68.5595 120.9 68.51C120.625 68.411 120.33 68.3801 120.04 68.42C118.185 68.8451 116.457 69.7055 115 70.93" stroke="white" stroke-width="0.86" stroke-linecap="round" stroke-linejoin="round"/>
<path d="M110.64 70C110.85 69.32 114.52 66.51 117.29 66.07C117.8 65.99 118.94 65.79 119.19 66.73" stroke="white" stroke-width="0.86" stroke-linecap="round" stroke-linejoin="round"/>
<path d="M114.05 69.46C115.452 68.074 117.266 67.1824 119.22 66.92C120.4 66.76 121.33 66.92 121.51 67.5C121.537 67.6672 121.52 67.8384 121.462 67.9976C121.405 68.1567 121.308 68.2986 121.18 68.41" stroke="white" stroke-width="0.86" stroke-linecap="round" stroke-linejoin="round"/>
<path d="M111 71.88C111.075 71.5408 111.053 71.1874 110.936 70.8602C110.819 70.533 110.613 70.2453 110.34 70.03C109.93 69.7 109.49 69.58 109.46 69.5C109.35 69.26 110.7 66.5 109.46 66.21C108.97 66.1 108.46 66.63 108.32 67.01C107.307 69.9109 107.212 73.0537 108.05 76.01" stroke="white" stroke-width="0.86" stroke-linecap="round" stroke-linejoin="round"/>
<path d="M61.64 35.25H173.44C174.565 35.25 175.679 35.4717 176.718 35.9026C177.757 36.3334 178.701 36.9648 179.496 37.7607C180.291 38.5566 180.922 39.5015 181.351 40.5412C181.781 41.5809 182.001 42.695 182 43.82V161C182 163.273 181.097 165.453 179.49 167.06C177.883 168.667 175.703 169.57 173.43 169.57H26.56C24.2888 169.567 22.1116 168.663 20.5066 167.056C18.9015 165.449 18 163.271 18 161V43.82C17.9987 42.6942 18.2195 41.5792 18.6497 40.5389C19.0799 39.4985 19.7111 38.5532 20.5072 37.7572C21.3032 36.9611 22.2485 36.3299 23.2889 35.8997C24.3292 35.4695 25.4442 35.2487 26.57 35.25H39.79" stroke="white" stroke-width="0.86" stroke-linecap="round" stroke-linejoin="round"/>
<path d="M157.32 139.76C156.74 139.35 151.71 135.25 151.69 135.28" stroke="#372C25" stroke-width="0.86" stroke-linecap="square" stroke-linejoin="bevel"/>
<path d="M151.63 135.22L156.15 128.78C156.75 128.21 162.57 125.02 165.45 121.71C166.83 120.12 168.91 119.14 170.85 121.05L157.93 140.18L157.85 140.12" stroke="#372C25" stroke-width="0.86" stroke-linecap="square" stroke-linejoin="bevel"/>
<path d="M141.29 162.36L142.52 163.6L158.95 147.4L157.65 146.08L157.62 146.04L141.19 162.25H141.18L141.21 162.28L141.22 162.29L141.29 162.36Z" fill="white" stroke="#372C25" stroke-width="0.86" stroke-miterlimit="10"/>
<path d="M140.77 161.83C140.28 161.32 136.14 156.33 136.12 156.35" stroke="#372C25" stroke-width="0.86" stroke-linecap="square" stroke-linejoin="bevel"/>
<path d="M136.07 156.28L141.74 150.83C142.44 150.39 148.74 148.39 152.22 145.69C153.89 144.39 156.12 143.83 157.65 146.08L141.29 162.36L141.22 162.29" stroke="#372C25" stroke-width="0.86" stroke-linecap="square" stroke-linejoin="bevel"/>
<path d="M86.0701 89.3999C86.0701 89.3999 97.0701 102.54 102.57 100.23C108.07 97.92 113.88 75.4499 113.88 75.4499L107.73 75.2499C103.28 86.2499 99.7301 90.8999 99.4601 90.8899C99.1901 90.8799 90.5401 77.8299 87.4601 76.3999C85.6401 75.5699 79.5501 75.3499 79.5501 75.3499C79.4575 74.8991 79.2521 74.4792 78.953 74.1294C78.654 73.7796 78.271 73.5114 77.8401 73.3499C77.773 73.3208 77.7024 73.3006 77.6301 73.2899C74.2501 72.5099 68.1301 73.2899 67.3801 73.8099C66.7402 74.3045 66.3028 75.0157 66.1501 75.8099C66.1501 75.8099 58.6801 75.6099 56.7001 77.8999C53.1301 81.9999 44.3301 92.1399 44.0001 92.1499C43.6701 92.1599 36.3401 77.0699 36.3401 77.0699L30.3401 77.2299C30.3401 77.2299 36.2501 100.54 41.9001 102.46C46.3001 104 57.7501 90.8399 57.7501 90.8399C57.7501 90.8399 54.7501 101.6 57.2601 120.84L57.5101 120.76L91.0001 111C89.3201 107.35 85.5501 103 86.0001 89.3699V89.2999" stroke="#372C25" stroke-width="0.86" stroke-linecap="round" stroke-linejoin="round"/>
</svg>
