<svg width="200" height="200" viewBox="0 0 200 200" fill="none" xmlns="http://www.w3.org/2000/svg">
<path d="M88.07 176.55C90.16 176.8 92.15 177.96 91.66 180.64H75.47C76 178 74 176.8 71.88 176.55C70.8241 176.413 69.7808 176.193 68.76 175.89V175.76C68.76 175.57 68.76 174.63 68.76 173.09H77.7C78.49 173.27 83.71 176 88.07 176.55Z" fill="white"/>
<path d="M75.4701 180.64L52.3901 180.74C52.3901 180.43 52.3901 177.61 52.3301 173.09H61.5101C62.1301 173.22 65.3401 174.88 68.7701 175.88C69.7908 176.183 70.8342 176.403 71.8901 176.54C74.0001 176.8 76.0001 178 75.4701 180.64Z" fill="white"/>
<path d="M62.3001 91C65.6801 91.32 68.3001 89.26 69.7201 87.9L69.7801 87.96C72.7801 88.13 75.6101 88.84 76.7801 90.65H76.8601C79.3301 87.84 84.9201 86.98 87.5001 89.24H87.6601C87.8901 88.48 88.3301 86.95 88.8701 85.11H89.0001C90.0001 92.68 90.7601 99.6 90.8201 102.82L51.5801 103C51.6701 101.17 52.1401 95.38 52.5801 88.89L52.6301 88.76C53.1301 88.93 53.6301 89.09 54.1301 89.24C56.8014 90.0462 59.5337 90.6348 62.3001 91Z" fill="white"/>
<path d="M53.5201 70.87C52.1341 72.4391 50.8291 74.0779 49.6101 75.78C48.7401 77.25 50.3501 79.04 52.9201 80.78V80.72C53.2401 76.3 53.4401 72.78 53.5201 70.87ZM56.8701 83V83.16C56.8701 83.16 54.0501 84.72 54.1801 89L54.1001 89.26C53.6101 89.11 53.1001 88.95 52.6001 88.78C46.4701 86.69 39.5301 82.84 38.5301 76C38.1401 73.28 39.6401 71.12 40.8301 68.68C42.3201 65.6 50.9601 54.39 53.0701 52.68C55.4601 50.68 63.6301 49.52 63.6301 49.52C63.8142 48.721 64.2746 48.0127 64.9301 47.52C65.9301 47.07 71.7301 46.9 75.0401 47.27C75.2325 47.2913 75.4191 47.349 75.5901 47.44C75.9669 47.6527 76.29 47.949 76.5345 48.3061C76.7789 48.6632 76.9382 49.0717 77.0001 49.5L94.0001 46.26C90.6701 39.81 88.3301 36 84.0001 28.49V28.41C84.3271 27.6357 84.8596 26.9656 85.5399 26.4721C86.2202 25.9786 87.0225 25.6805 87.8601 25.61C89.7601 27.68 106.43 45.99 104.42 48.87C102.02 52.33 85.4201 59.78 85.4201 59.78C85.8501 62.5 86.4201 66.14 87.1101 70.58V70.65C83.4901 70.65 79.7501 71.85 78.6401 74.45H78.5401C76.7001 68.78 62.3401 69 61.6301 71C61.4301 71.54 61.3701 77.16 61.4101 81.92H61.3401C60.7599 81.9553 60.2025 82.1584 59.7356 82.5046C59.2687 82.8508 58.9124 83.3251 58.7101 83.87C58.1201 83.6 57.4901 83.3 56.8701 83Z" fill="white"/>
<path d="M52.3399 182.62H75.4199V180.72H52.3399V182.62Z" stroke="white" stroke-width="0.86" stroke-linecap="round" stroke-linejoin="round"/>
<path d="M91.62 180.73H75.46V182.63H91.62V180.73Z" stroke="white" stroke-width="0.86" stroke-linecap="round" stroke-linejoin="round"/>
<path d="M88.3301 176.56V158.17H122.69V169.08" stroke="white" stroke-width="0.86" stroke-miterlimit="10" stroke-linecap="round"/>
<path d="M122.69 178.51V182.63H88.3301" stroke="white" stroke-width="0.86" stroke-miterlimit="10" stroke-linecap="round"/>
<path d="M153.22 164C149.393 160.616 144.602 158.518 139.52 158" stroke="white" stroke-width="0.86" stroke-miterlimit="10" stroke-linecap="round"/>
<path d="M153.54 175.89C154.342 177.977 154.752 180.194 154.75 182.43H161.53C161.538 178.057 160.367 173.763 158.14 170" stroke="white" stroke-width="0.86" stroke-miterlimit="10" stroke-linecap="round"/>
<path d="M139.48 164.83C143.385 165.306 147.007 167.11 149.74 169.94" stroke="white" stroke-width="0.86" stroke-miterlimit="10" stroke-linecap="round"/>
<path d="M142.7 158.82L141.35 165.04" stroke="white" stroke-width="0.86" stroke-miterlimit="10" stroke-linecap="round"/>
<path d="M148.36 160.8L145.59 166.77" stroke="white" stroke-width="0.86" stroke-miterlimit="10" stroke-linecap="round"/>
<path d="M152.84 163.72L148.81 169.06" stroke="white" stroke-width="0.86" stroke-miterlimit="10" stroke-linecap="round"/>
<path d="M154.54 174.86L159.81 173.43" stroke="white" stroke-width="0.86" stroke-miterlimit="10" stroke-linecap="round"/>
<path d="M154.52 179.15L161.08 178.61" stroke="white" stroke-width="0.86" stroke-miterlimit="10" stroke-linecap="round"/>
<path d="M115.67 171C119.15 176.4 124.611 180.219 130.877 181.636C137.143 183.053 143.715 181.956 149.18 178.579C154.646 175.203 158.569 169.817 160.106 163.579C161.643 157.341 160.671 150.749 157.4 145.22L151.63 148.78C152.917 150.763 153.795 152.983 154.213 155.31C154.63 157.637 154.579 160.024 154.061 162.33C153.544 164.637 152.57 166.817 151.199 168.743C149.827 170.668 148.085 172.3 146.074 173.543C144.063 174.786 141.824 175.615 139.488 175.981C137.153 176.346 134.768 176.242 132.473 175.674C130.178 175.105 128.02 174.084 126.126 172.67C124.231 171.256 122.638 169.478 121.44 167.44L115.67 171Z" stroke="white" stroke-width="0.86" stroke-miterlimit="10" stroke-linecap="round"/>
<path d="M159.72 150.61L153.53 152.6" stroke="white" stroke-width="0.86" stroke-miterlimit="10" stroke-linecap="round"/>
<path d="M160.85 157.05L154.43 157.3" stroke="white" stroke-width="0.86" stroke-miterlimit="10" stroke-linecap="round"/>
<path d="M160.54 163.03L154 161.49" stroke="white" stroke-width="0.86" stroke-miterlimit="10" stroke-linecap="round"/>
<path d="M158.68 168.59L152.57 165.92" stroke="white" stroke-width="0.86" stroke-miterlimit="10" stroke-linecap="round"/>
<path d="M154.91 174.39L150.07 169.79" stroke="white" stroke-width="0.86" stroke-miterlimit="10" stroke-linecap="round"/>
<path d="M149.84 178.66L146.49 172.98" stroke="white" stroke-width="0.86" stroke-miterlimit="10" stroke-linecap="round"/>
<path d="M144.1 181.19L141.98 175.19" stroke="white" stroke-width="0.86" stroke-miterlimit="10" stroke-linecap="round"/>
<path d="M138.24 182.48L137.47 175.94" stroke="white" stroke-width="0.86" stroke-miterlimit="10" stroke-linecap="round"/>
<path d="M132.9 182.35L133.52 175.69" stroke="white" stroke-width="0.86" stroke-miterlimit="10" stroke-linecap="round"/>
<path d="M127.37 180.86L129.7 174.56" stroke="white" stroke-width="0.86" stroke-miterlimit="10" stroke-linecap="round"/>
<path d="M126.36 172.84L121.87 177.76" stroke="white" stroke-width="0.86" stroke-miterlimit="10" stroke-linecap="round"/>
<path d="M123.36 170.1L118.06 174.02" stroke="white" stroke-width="0.86" stroke-miterlimit="10" stroke-linecap="round"/>
<path d="M107.12 131.34C98.3091 133.129 90.4722 138.116 85.1201 145.34" stroke="white" stroke-width="0.86" stroke-miterlimit="10" stroke-linecap="round"/>
<path d="M102.29 143.55C103.86 142.722 105.508 142.052 107.21 141.55" stroke="white" stroke-width="0.86" stroke-miterlimit="10" stroke-linecap="round"/>
<path d="M89.54 158.18C91.2571 153.294 94.3902 149.029 98.54 145.93" stroke="white" stroke-width="0.86" stroke-miterlimit="10" stroke-linecap="round"/>
<path d="M85.8101 176.11L88.3101 175.3" stroke="white" stroke-width="0.86" stroke-miterlimit="10" stroke-linecap="round"/>
<path d="M79.1399 168.44L87.8299 168.07" stroke="white" stroke-width="0.86" stroke-miterlimit="10" stroke-linecap="round"/>
<path d="M81.49 160.22L88.29 161.86" stroke="white" stroke-width="0.86" stroke-miterlimit="10" stroke-linecap="round"/>
<path d="M83.5601 152.2L90.5801 155.34" stroke="white" stroke-width="0.86" stroke-miterlimit="10" stroke-linecap="round"/>
<path d="M87.1599 142.84L94.2799 149.62" stroke="white" stroke-width="0.86" stroke-miterlimit="10" stroke-linecap="round"/>
<path d="M94.6201 136.5L98.9301 143.82" stroke="white" stroke-width="0.86" stroke-miterlimit="10" stroke-linecap="round"/>
<path d="M103.11 132.77L106.23 141.63" stroke="white" stroke-width="0.86" stroke-miterlimit="10" stroke-linecap="round"/>
<path d="M96.3601 166.46L93.3601 169.46" stroke="white" stroke-width="0.86" stroke-miterlimit="10" stroke-linecap="round"/>
<path d="M93.3201 166.46L96.3201 169.46" stroke="white" stroke-width="0.86" stroke-miterlimit="10" stroke-linecap="round"/>
<path d="M122 96C120.876 96 119.778 96.3334 118.843 96.958C117.909 97.5825 117.181 98.4702 116.751 99.5087C116.322 100.547 116.21 101.69 116.43 102.792C116.65 103.894 117.192 104.906 117.987 105.7C118.783 106.494 119.796 107.034 120.898 107.252C122.001 107.47 123.143 107.356 124.181 106.925C125.218 106.493 126.105 105.764 126.728 104.828C127.351 103.893 127.682 102.794 127.68 101.67C127.68 100.925 127.533 100.186 127.248 99.4979C126.962 98.8093 126.543 98.1838 126.016 97.6572C125.488 97.1305 124.862 96.7131 124.173 96.4287C123.484 96.1444 122.745 95.9987 122 96ZM125.13 104.79C125.09 104.832 125.042 104.865 124.989 104.888C124.935 104.91 124.878 104.922 124.82 104.922C124.762 104.922 124.705 104.91 124.652 104.888C124.598 104.865 124.55 104.832 124.51 104.79C123.93 104.2 122.97 103.24 122 102.28L119.49 104.79C119.452 104.832 119.406 104.866 119.354 104.888C119.303 104.91 119.246 104.921 119.19 104.92C119.105 104.918 119.023 104.891 118.953 104.843C118.883 104.795 118.829 104.728 118.796 104.65C118.763 104.572 118.754 104.486 118.769 104.403C118.784 104.319 118.822 104.242 118.88 104.18C119.13 103.94 120.23 102.83 121.39 101.67L118.89 99.17C118.849 99.1313 118.815 99.0848 118.792 99.0331C118.769 98.9815 118.756 98.9258 118.754 98.8691C118.752 98.8125 118.761 98.7561 118.781 98.703C118.801 98.65 118.831 98.6014 118.87 98.56C118.909 98.5186 118.955 98.4853 119.007 98.4619C119.059 98.4385 119.114 98.4255 119.171 98.4237C119.228 98.4218 119.284 98.4311 119.337 98.4511C119.39 98.4711 119.439 98.5013 119.48 98.54C119.57 98.62 120.74 99.8 122 101.06L124.52 98.54C124.602 98.4612 124.711 98.4171 124.825 98.4171C124.939 98.4171 125.048 98.4612 125.13 98.54C125.17 98.58 125.202 98.6275 125.224 98.6798C125.246 98.7322 125.257 98.7883 125.257 98.845C125.257 98.9017 125.246 98.9578 125.224 99.0102C125.202 99.0625 125.17 99.11 125.13 99.15L122.62 101.65L125.14 104.16C125.216 104.247 125.255 104.361 125.249 104.476C125.243 104.591 125.194 104.7 125.11 104.78L125.13 104.79Z" fill="white"/>
<path d="M111.52 166.46L108.52 169.46" stroke="white" stroke-width="0.86" stroke-miterlimit="10" stroke-linecap="round"/>
<path d="M108.47 166.46L111.47 169.46" stroke="white" stroke-width="0.86" stroke-miterlimit="10" stroke-linecap="round"/>
<path d="M107.3 158.16V131.61H139.48V175.42" stroke="white" stroke-width="0.86" stroke-miterlimit="10" stroke-linecap="round"/>
<path d="M156.09 145.93C157.3 145.45 159.37 141.85 157.66 138.76C155.81 135.4 152.74 135.57 151.48 136.2C152.48 138.52 154.99 143.89 156.01 145.95" stroke="white" stroke-width="0.86" stroke-miterlimit="10" stroke-linecap="round"/>
<path d="M148 138.22C146.79 138.71 144.72 142.3 146.43 145.39C148.28 148.75 151.35 148.58 152.61 147.96C151.61 145.64 149.1 140.26 148.08 138.21" stroke="white" stroke-width="0.86" stroke-miterlimit="10" stroke-linecap="round"/>
<path d="M92.4099 174.21C93.3299 174.21 93.3299 180.38 94.2499 180.38C95.1699 180.38 95.1699 174.21 96.0999 174.21C97.0299 174.21 97.0199 180.38 97.9399 180.38C98.8599 180.38 98.8599 174.21 99.7799 174.21C100.7 174.21 100.7 180.38 101.62 180.38C102.54 180.38 102.55 174.21 103.47 174.21C104.39 174.21 104.39 180.38 105.32 180.38C106.25 180.38 106.24 174.21 107.16 174.21C108.08 174.21 108.09 180.38 109.01 180.38C109.93 180.38 109.94 174.21 110.86 174.21C111.78 174.21 111.79 180.38 112.71 180.38" stroke="white" stroke-width="0.86" stroke-miterlimit="10" stroke-linecap="round"/>
<path d="M113.23 158.1L118.75 147.53" stroke="white" stroke-width="0.86" stroke-miterlimit="10" stroke-linecap="round"/>
<path d="M119.36 147.48C120.597 147.48 121.6 146.477 121.6 145.24C121.6 144.003 120.597 143 119.36 143C118.123 143 117.12 144.003 117.12 145.24C117.12 146.477 118.123 147.48 119.36 147.48Z" stroke="white" stroke-width="0.86" stroke-miterlimit="10" stroke-linecap="round"/>
<path d="M94.5901 158.1L100.11 147.53" stroke="white" stroke-width="0.86" stroke-miterlimit="10" stroke-linecap="round"/>
<path d="M100.72 147.48C101.957 147.48 102.96 146.477 102.96 145.24C102.96 144.003 101.957 143 100.72 143C99.4829 143 98.48 144.003 98.48 145.24C98.48 146.477 99.4829 147.48 100.72 147.48Z" stroke="white" stroke-width="0.86" stroke-miterlimit="10" stroke-linecap="round"/>
<path d="M125.97 171.98V143.38H139.37" stroke="white" stroke-width="0.86" stroke-miterlimit="10" stroke-linecap="round"/>
<path d="M119.52 131.61C119.52 131.61 106.52 115.44 106.26 115.21C105.85 114.77 100.74 117.82 102.2 123.96C103.66 130.1 107.4 131.56 107.4 131.56" stroke="white" stroke-width="0.86" stroke-miterlimit="10" stroke-linecap="round"/>
<path d="M117.42 128.82C117.789 128.571 118.238 128.47 118.677 128.539C119.117 128.608 119.514 128.841 119.789 129.19C120.064 129.54 120.196 129.981 120.159 130.424C120.123 130.868 119.919 131.281 119.59 131.58" stroke="white" stroke-width="0.86" stroke-miterlimit="10" stroke-linecap="round"/>
<path d="M115.26 126.07C115.629 125.821 116.078 125.72 116.517 125.789C116.957 125.858 117.354 126.091 117.629 126.44C117.904 126.79 118.037 127.231 118 127.674C117.963 128.118 117.759 128.531 117.43 128.83" stroke="white" stroke-width="0.86" stroke-miterlimit="10" stroke-linecap="round"/>
<path d="M113.1 123.33C113.469 123.081 113.918 122.98 114.358 123.049C114.797 123.118 115.194 123.351 115.469 123.7C115.744 124.05 115.877 124.491 115.84 124.934C115.803 125.378 115.599 125.791 115.27 126.09" stroke="white" stroke-width="0.86" stroke-miterlimit="10" stroke-linecap="round"/>
<path d="M110.94 120.58C111.309 120.331 111.758 120.23 112.197 120.299C112.637 120.368 113.034 120.601 113.309 120.95C113.584 121.3 113.716 121.741 113.679 122.184C113.643 122.628 113.439 123.041 113.11 123.34" stroke="white" stroke-width="0.86" stroke-miterlimit="10" stroke-linecap="round"/>
<path d="M108.77 117.84C109.136 117.544 109.604 117.406 110.072 117.456C110.54 117.505 110.969 117.739 111.265 118.105C111.561 118.471 111.699 118.939 111.649 119.407C111.6 119.875 111.366 120.304 111 120.6" stroke="white" stroke-width="0.86" stroke-miterlimit="10" stroke-linecap="round"/>
<path d="M106.61 115.09C106.978 114.823 107.435 114.709 107.885 114.771C108.335 114.833 108.744 115.067 109.025 115.423C109.307 115.78 109.44 116.232 109.396 116.684C109.352 117.136 109.135 117.554 108.79 117.85" stroke="white" stroke-width="0.86" stroke-miterlimit="10" stroke-linecap="round"/>
<path d="M137 129.39C136.36 127.82 132.33 120.99 135.49 119.96C137.55 119.28 142.92 126.37 141.21 127.42C139.88 128.24 136.63 120.15 137.64 118.55C139.42 115.74 144.64 122.45 144.86 124.14C145.15 126 143.86 125.14 143.22 124.07C141.82 121.82 140.45 117.87 142.52 115.65" stroke="white" stroke-width="0.86" stroke-miterlimit="10" stroke-linecap="round"/>
<path d="M99.79 129.82C98.51 129.95 92.67 131.39 92.6 128.87C92.6 127.23 98.87 124.87 99.27 126.33C99.58 127.48 92.99 128.08 92.05 127C90.39 125.1 96.39 122.79 97.68 123C98.97 123.21 98.15 123.93 97.27 124.17C95.33 124.7 92.16 124.84 90.99 122.86" stroke="white" stroke-width="0.86" stroke-miterlimit="10" stroke-linecap="round"/>
<path d="M125.54 111.52H113.39C112.803 111.553 112.226 111.351 111.788 110.959C111.349 110.567 111.084 110.017 111.05 109.43V94.1C111.084 93.5119 111.349 92.9609 111.787 92.5674C112.225 92.174 112.802 91.97 113.39 92H130.58C131.167 91.9699 131.742 92.1725 132.18 92.5639C132.618 92.9552 132.884 93.5036 132.92 94.09V109.42C132.887 110.007 132.621 110.557 132.182 110.949C131.744 111.341 131.167 111.543 130.58 111.51H128.25" stroke="white" stroke-width="0.86" stroke-linecap="round" stroke-linejoin="round"/>
<path d="M128.32 110.29C128.32 110.29 127.68 114.91 126.55 115.79C125.42 116.67 125.66 109.4 125.66 109.4" stroke="white" stroke-width="0.86" stroke-linecap="round" stroke-linejoin="round"/>
<path d="M75.8801 28.76C75.9348 28.76 75.989 28.7709 76.0394 28.7921C76.0898 28.8134 76.1354 28.8445 76.1736 28.8836C76.2118 28.9227 76.2418 28.9691 76.2618 29.02C76.2818 29.0709 76.2914 29.1253 76.2901 29.18C76.2901 29.2347 76.2792 29.2888 76.258 29.3392C76.2368 29.3897 76.2056 29.4353 76.1665 29.4735C76.1274 29.5117 76.081 29.5417 76.0301 29.5617C75.9792 29.5817 75.9248 29.5913 75.8701 29.59C75.8102 29.5993 75.749 29.5956 75.6907 29.579C75.6324 29.5624 75.5784 29.5334 75.5323 29.494C75.4863 29.4546 75.4493 29.4057 75.424 29.3506C75.3986 29.2955 75.3855 29.2356 75.3855 29.175C75.3855 29.1144 75.3986 29.0545 75.424 28.9994C75.4493 28.9443 75.4863 28.8954 75.5323 28.856C75.5784 28.8166 75.6324 28.7876 75.6907 28.771C75.749 28.7544 75.8102 28.7507 75.8701 28.76H75.8801Z" fill="white"/>
<path d="M70.27 28.58C70.3251 28.5813 70.3795 28.5934 70.43 28.6157C70.4804 28.638 70.526 28.6701 70.5641 28.71C70.6021 28.7499 70.632 28.797 70.6519 28.8484C70.6718 28.8999 70.6813 28.9548 70.68 29.01C70.68 29.0647 70.6691 29.1188 70.6478 29.1692C70.6266 29.2196 70.5955 29.2653 70.5564 29.3035C70.5172 29.3417 70.4709 29.3717 70.42 29.3917C70.369 29.4117 70.3147 29.4213 70.26 29.42C70.2048 29.4187 70.1505 29.4065 70.1 29.3842C70.0495 29.3619 70.004 29.3298 69.9659 29.2899C69.9278 29.25 69.898 29.2029 69.8781 29.1515C69.8582 29.1 69.8486 29.0451 69.85 28.99C69.85 28.9353 69.8609 28.8811 69.8821 28.8307C69.9033 28.7803 69.9344 28.7347 69.9736 28.6964C70.0127 28.6582 70.0591 28.6283 70.11 28.6082C70.1609 28.5882 70.2153 28.5786 70.27 28.58Z" fill="white"/>
<path d="M68.52 148.86C68.61 159.52 68.74 168.72 68.79 173.09C68.79 174.63 68.79 175.57 68.79 175.76" stroke="white" stroke-width="0.86" stroke-miterlimit="10"/>
<path d="M58.5699 106.49C58.6999 110.81 55.6999 113.4 51.9999 114.43C50.9842 114.708 49.9415 114.876 48.8899 114.93" stroke="white" stroke-width="0.86" stroke-miterlimit="10" stroke-linecap="round"/>
<path d="M74.1 111.54C73.5455 124.14 71.6617 136.646 68.48 148.85C66.37 157.35 63.91 165.48 61.55 172.98V173.08C62.17 173.21 65.38 174.87 68.81 175.87C69.8308 176.173 70.8741 176.393 71.93 176.53C74.03 176.78 76.01 177.94 75.52 180.62L52.44 180.72C52.44 180.41 52.44 177.59 52.38 173.07C52.25 160.62 51.96 135.32 52.05 114.41C52.05 110.49 52.05 106.73 52.14 103.23" stroke="white" stroke-width="0.86" stroke-linecap="round" stroke-linejoin="round"/>
<path d="M90.15 103.42C89.52 131.01 83.48 154.72 77.7 173.08C78.5 173.25 83.7 176.02 88.08 176.53C90.17 176.78 92.16 177.94 91.67 180.62H75.28" stroke="white" stroke-width="0.86" stroke-linecap="round" stroke-linejoin="round"/>
<path d="M78.0799 173.09H77.6999H68.9399" stroke="white" stroke-width="0.86" stroke-miterlimit="10"/>
<path d="M61.5199 173.09H61.5099H52.3799" stroke="white" stroke-width="0.86" stroke-miterlimit="10"/>
<path d="M79.8701 27.41C80.7501 30.87 75.8701 39.01 74.4401 39.56C74.2662 39.6297 74.0851 39.68 73.9001 39.71C71.8401 40.08 69.2401 38.25 68.3601 36.44" stroke="white" stroke-width="0.86" stroke-miterlimit="10" stroke-linecap="round"/>
<path d="M65.6599 25.5499C65.7299 25.0599 65.7999 24.5499 65.8899 23.9599C66.0146 23.0802 66.1915 22.2086 66.4199 21.3499C66.6977 20.1805 67.238 19.0896 67.9999 18.1599C70.9099 14.9099 74.0899 17.3299 76.4399 20.6799C77.0933 21.6239 77.6845 22.6093 78.2099 23.6299" stroke="white" stroke-width="0.86" stroke-miterlimit="10" stroke-linecap="round"/>
<path d="M64.94 47.3501C64.94 41.4301 64.63 35.8401 65.12 29.9301" stroke="white" stroke-width="0.86" stroke-miterlimit="10"/>
<path d="M73.8701 39.47V39.71C74.0818 42.3235 74.6678 44.8931 75.6101 47.34" stroke="white" stroke-width="0.86" stroke-miterlimit="10"/>
<path d="M66.4799 26.6001C66.2386 26.2302 65.9495 25.8939 65.6199 25.6001C63.2799 23.6001 61.7299 28.0401 62.6899 29.3101C62.9945 29.6264 63.3853 29.8462 63.8138 29.9422C64.2422 30.0382 64.6895 30.0062 65.0999 29.8501C65.2859 29.7925 65.4666 29.7188 65.6399 29.6301" stroke="white" stroke-width="0.86" stroke-miterlimit="10" stroke-linecap="round"/>
<path d="M66.0999 23.88L65.8899 23.96C64.5899 24.38 57.9699 26.21 57.8899 23.96C57.8899 22.58 62.0199 21.81 66.3899 21.38C70.9499 20.92 75.7399 20.83 76.2699 20.78" stroke="white" stroke-width="0.86" stroke-miterlimit="10"/>
<path d="M65.1701 27.4C64.7436 27.7922 64.1893 28.016 63.6101 28.03" stroke="white" stroke-width="0.86" stroke-miterlimit="10" stroke-linecap="round"/>
<path d="M52.55 88.91C52.14 95.4 51.67 101.19 51.55 103.02L90.8301 103C90.7701 99.73 90 92.81 89 85.24" stroke="white" stroke-width="0.86" stroke-linecap="round" stroke-linejoin="round"/>
<path d="M53.52 70.87C53.44 72.78 53.24 76.3 52.97 80.69" stroke="white" stroke-width="0.86" stroke-linecap="round" stroke-linejoin="round"/>
<path d="M59.0999 84L58.7499 83.84C58.1199 83.56 57.4899 83.26 56.8699 82.96C55.5099 82.2887 54.1909 81.5374 52.9199 80.71C50.3499 79 48.7399 77.21 49.6099 75.71C50.829 74.0079 52.134 72.3691 53.5199 70.8C55.9763 67.8629 58.6506 65.1151 61.5199 62.58" stroke="white" stroke-width="0.86" stroke-linejoin="round"/>
<path d="M83.73 21.63C83.66 21.51 83.49 21.23 83.26 20.89C82.67 20.04 81.74 18.77 81.56 18.52C80.93 17.64 80.2 17.74 79.27 18.15C78.66 18.42 76.58 19.03 76.79 20.01C77.08 21.32 79.46 20.01 79.92 20.08C80.38 20.15 80.83 21.23 81.18 21.81" stroke="white" stroke-width="0.86" stroke-miterlimit="10" stroke-linecap="round"/>
<path d="M82.0799 22.1C81.781 22.007 81.4772 21.9302 81.1699 21.87C79.5999 21.59 78.9199 22.1 78.6199 22.73C78.4599 23.05 78.3199 23.35 78.1899 23.64C77.8416 24.2565 77.6206 24.9366 77.5399 25.64C77.5201 25.8065 77.5517 25.975 77.6306 26.1229C77.7095 26.2709 77.8318 26.391 77.9811 26.4673C78.1304 26.5436 78.2994 26.5723 78.4655 26.5495C78.6316 26.5268 78.7867 26.4537 78.9099 26.34" stroke="white" stroke-width="0.86" stroke-miterlimit="10" stroke-linecap="round"/>
<path d="M87 70.58C86.35 66.14 85.74 62.5 85.31 59.78C85.31 59.78 101.94 52.33 104.31 48.87C106.31 45.99 89.65 27.68 87.75 25.61L87.58 25.42C87.58 25.42 84.65 20.09 85.15 18.49C85.76 16.49 84.06 16.49 83.46 18.62C83.1994 19.3432 83.1238 20.1201 83.24 20.88" stroke="white" stroke-width="0.86" stroke-miterlimit="10" stroke-linecap="round"/>
<path d="M56.8599 83.16C56.8599 83.16 54.0499 84.72 54.1799 89" stroke="white" stroke-width="0.86" stroke-miterlimit="10" stroke-linecap="round"/>
<path d="M62.3101 90.9999C59.533 90.6298 56.7906 90.0345 54.1101 89.2199C53.6201 89.0699 53.1101 88.9099 52.6101 88.7399C46.4701 86.6899 39.5301 82.8399 38.5301 75.9999C38.1401 73.2799 39.6401 71.1199 40.8301 68.6799C42.3201 65.5999 50.9601 54.3899 53.0701 52.6799C55.4601 50.6799 63.6301 49.5199 63.6301 49.5199C63.8142 48.7209 64.2746 48.0126 64.9301 47.5199C65.9301 47.0699 71.7301 46.8999 75.0401 47.2699C75.2325 47.2913 75.4191 47.349 75.5901 47.4399C75.9669 47.6526 76.29 47.9489 76.5345 48.3061C76.7789 48.6632 76.9382 49.0716 77.0001 49.4999L94.0001 46.2599C90.6701 39.8099 88.3301 35.9999 84.0001 28.4899V28.4099C83.7701 27.9699 82.5901 25.7399 82.5401 25.7199C82.4901 25.6999 81.1001 25.7199 81.1001 25.7199L80.7801 26.6099C80.7159 26.8225 80.5827 27.0077 80.4017 27.1362C80.2206 27.2648 80.0019 27.3294 79.7801 27.3199C79.3701 27.3199 79.0001 27.0999 79.0001 26.7899C78.9868 26.667 78.9868 26.5429 79.0001 26.4199C79.0953 25.5763 79.444 24.7814 80.0001 24.1399C80.5301 23.7299 81.4901 23.8799 82.2801 23.9499" stroke="white" stroke-width="0.86" stroke-linecap="round" stroke-linejoin="round"/>
<path d="M87.7899 25.61C86.9524 25.6805 86.1501 25.9786 85.4698 26.4721C84.7894 26.9656 84.257 27.6357 83.9299 28.41" stroke="white" stroke-width="0.86" stroke-miterlimit="10" stroke-linecap="round"/>
<path d="M71.6399 36.29C71.9573 36.0546 72.339 35.9218 72.7339 35.9093C73.1289 35.8968 73.5182 36.0052 73.8499 36.22" stroke="white" stroke-width="0.86" stroke-linecap="round" stroke-linejoin="round"/>
<path d="M71.23 26.3901C71.0619 26.2321 70.8625 26.1112 70.6447 26.0351C70.4269 25.959 70.1956 25.9294 69.9656 25.9483C69.7357 25.9671 69.5123 26.034 69.3098 26.1445C69.1073 26.2551 68.9302 26.4068 68.79 26.5901" stroke="white" stroke-width="0.86" stroke-miterlimit="10" stroke-linecap="round"/>
<path d="M76.7 26.36C76.5335 26.2008 76.3351 26.0787 76.1179 26.0018C75.9007 25.9249 75.6697 25.8949 75.4401 25.9138C75.2105 25.9327 74.9874 26.0001 74.7858 26.1115C74.5841 26.2228 74.4083 26.3757 74.27 26.56" stroke="white" stroke-width="0.86" stroke-miterlimit="10" stroke-linecap="round"/>
<path d="M74.21 26.6899C73.7 27.9099 74.21 29.8299 74.42 31.0999C74.53 31.9699 74.69 33.6399 73.21 33.0999" stroke="white" stroke-width="0.86" stroke-miterlimit="10" stroke-linecap="round"/>
<path d="M78.49 74.5701C78.5023 74.5284 78.5191 74.4882 78.54 74.4501C79.65 71.8501 83.39 70.6701 87.01 70.6501C89.0294 70.5841 91.0353 71.0024 92.86 71.8701" stroke="white" stroke-width="0.86" stroke-linecap="round" stroke-linejoin="round"/>
<path d="M61.6299 70.9999C62.3399 68.9999 76.6999 68.8099 78.4399 74.4699L76.8099 90.3099" stroke="white" stroke-width="0.86" stroke-linecap="round" stroke-linejoin="round"/>
<path d="M92.9999 71.9399C92.5399 72.7799 90.3299 80.1999 88.8499 85.2399C88.3099 87.0799 87.8499 88.6099 87.6399 89.3699C87.6458 89.3929 87.6458 89.417 87.6399 89.4399" stroke="white" stroke-width="0.86" stroke-linecap="round" stroke-linejoin="round"/>
<path d="M87.4901 89.33C84.9101 87.07 79.3201 87.93 76.8501 90.74" stroke="white" stroke-width="0.86" stroke-linecap="round" stroke-linejoin="round"/>
<path d="M61.51 85.64C61.51 84.96 61.51 84.2 61.51 83.4C61.51 82.93 61.51 82.4 61.51 81.94C61.51 77.18 61.51 71.56 61.73 71.02" stroke="white" stroke-width="0.86" stroke-linecap="round" stroke-linejoin="round"/>
<path d="M76.77 90.69C75.61 88.88 72.77 88.17 69.77 88" stroke="white" stroke-width="0.86" stroke-linecap="round" stroke-linejoin="round"/>
<path d="M67.8199 84.34C68.6399 83.46 67.7299 82.07 66.6299 82.97C65.0599 84.26 62.9999 85.64 61.5099 85.63H61.1399H60.9199" stroke="white" stroke-width="0.86" stroke-linejoin="round"/>
<path d="M65 88.94C66.7015 87.9355 68.2761 86.7302 69.6901 85.35L69.8001 85.22C70.1701 84.73 70.2401 83.22 69.0401 83.46C68.5745 83.6711 68.1562 83.9738 67.81 84.35C66.5563 85.5172 65.1165 86.4669 63.55 87.16" stroke="white" stroke-width="0.86" stroke-linecap="round" stroke-linejoin="round"/>
<path d="M62.23 91.0001H62.3C65.68 91.3201 68.3 89.2601 69.72 87.9001C70.21 87.4201 70.54 87.0201 70.72 86.9001C71.33 86.1601 70.85 85.0101 69.72 85.3701" stroke="white" stroke-width="0.86" stroke-linejoin="round"/>
<path d="M61.18 85.81C61.1744 85.7368 61.1744 85.6632 61.18 85.59C61.0794 85.2205 61.0567 84.834 61.1135 84.4553C61.1704 84.0765 61.3054 83.7138 61.51 83.39" stroke="white" stroke-width="0.86" stroke-linejoin="round"/>
<path d="M58.6201 84.1801C58.6201 84.1101 58.6901 84.0001 58.7501 83.8801C58.9525 83.3352 59.3088 82.8608 59.7757 82.5146C60.2426 82.1685 60.8 81.9654 61.3801 81.9301" stroke="white" stroke-width="0.86" stroke-linejoin="round"/>
<path d="M59.0999 84L58.7499 83.84C58.1199 83.56 57.4899 83.26 56.8699 82.96C55.5099 82.2887 54.1909 81.5374 52.9199 80.71C50.3499 79 48.7399 77.21 49.6099 75.71C50.829 74.0079 52.134 72.3691 53.5199 70.8C55.9763 67.8629 58.6506 65.1151 61.5199 62.58" stroke="#372C25" stroke-width="0.86" stroke-linecap="round" stroke-linejoin="round"/>
<path d="M67.55 174.65C68.69 175.21 70.71 176.45 71.88 176.55C73.98 176.73 75.39 177.76 75.43 180.64" stroke="#372C25" stroke-width="0.86" stroke-linecap="square" stroke-linejoin="round"/>
</svg>
